<svg width="64" height="64" viewBox="0 0 64 64" fill="none" xmlns="http://www.w3.org/2000/svg">
<path fill-rule="evenodd" clip-rule="evenodd" d="M5.33203 32.0007C5.33203 46.7282 17.2711 58.6673 31.9987 58.6673C46.7263 58.6673 58.6654 46.7282 58.6654 32.0007C58.6654 17.2731 46.7263 5.33398 31.9987 5.33398C17.2711 5.33398 5.33203 17.2731 5.33203 32.0007ZM55.4633 32.0005C55.4633 44.9608 44.9569 55.4672 31.9966 55.4672C19.0363 55.4672 8.52995 44.9608 8.52995 32.0005C8.52995 19.0402 19.0363 8.53385 31.9966 8.53385C44.9569 8.53385 55.4633 19.0402 55.4633 32.0005ZM30.2389 17.1503H33.7546L33.5202 35.9784H30.4733L30.2389 17.1503ZM29.7702 43.3027C29.7702 44.5527 30.7467 45.5292 31.9967 45.5292C33.2663 45.5292 34.2233 44.5527 34.2233 43.3027C34.2233 42.0331 33.2663 41.0761 31.9967 41.0761C30.7467 41.0761 29.7702 42.0331 29.7702 43.3027Z" fill="#FA5151"/>
</svg>
