<svg width="64" height="64" viewBox="0 0 64 64" fill="none" xmlns="http://www.w3.org/2000/svg">
<path fill-rule="evenodd" clip-rule="evenodd" d="M5.33203 32.0007C5.33203 46.7282 17.2711 58.6673 31.9987 58.6673C46.7263 58.6673 58.6654 46.7282 58.6654 32.0007C58.6654 17.2731 46.7263 5.33398 31.9987 5.33398C17.2711 5.33398 5.33203 17.2731 5.33203 32.0007ZM55.4633 32.0012C55.4633 44.9615 44.9569 55.4678 31.9966 55.4678C19.0363 55.4678 8.52995 44.9615 8.52995 32.0012C8.52995 19.0409 19.0363 8.53451 31.9966 8.53451C44.9569 8.53451 55.4633 19.0409 55.4633 32.0012ZM30.4004 26.667H33.6004V45.3337H30.4004V26.667ZM31.9993 24.0003C33.4721 24.0003 34.666 22.8064 34.666 21.3337C34.666 19.8609 33.4721 18.667 31.9993 18.667C30.5266 18.667 29.3327 19.8609 29.3327 21.3337C29.3327 22.8064 30.5266 24.0003 31.9993 24.0003Z" fill="#10AEFF"/>
</svg>
