<svg width="64" height="64" viewBox="0 0 64 64" fill="none" xmlns="http://www.w3.org/2000/svg">
<path fill-rule="evenodd" clip-rule="evenodd" d="M31.9987 58.6673C17.2711 58.6673 5.33203 46.7282 5.33203 32.0007C5.33203 17.2731 17.2711 5.33398 31.9987 5.33398C46.7263 5.33398 58.6654 17.2731 58.6654 32.0007C58.6654 46.7282 46.7263 58.6673 31.9987 58.6673ZM31.9966 55.4678C44.9569 55.4678 55.4633 44.9615 55.4633 32.0012C55.4633 19.0409 44.9569 8.53451 31.9966 8.53451C19.0363 8.53451 8.52995 19.0409 8.52995 32.0012C8.52995 44.9615 19.0363 55.4678 31.9966 55.4678ZM30.401 16.0003H33.601V30.6748L43.9763 41.0501L41.7135 43.3128L30.401 32.0003L30.3998 31.9991L30.401 31.9979V16.0003Z" fill="#10AEFF"/>
</svg>
