<svg width="20" height="20" viewBox="0 0 20 20" fill="none" xmlns="http://www.w3.org/2000/svg">
<path fill-rule="evenodd" clip-rule="evenodd" d="M1.66406 9.99935C1.66406 14.6017 5.39502 18.3327 9.9974 18.3327C14.5998 18.3327 18.3307 14.6017 18.3307 9.99935C18.3307 5.39698 14.5998 1.66602 9.9974 1.66602C5.39502 1.66602 1.66406 5.39698 1.66406 9.99935ZM17.3301 9.99951C17.3301 14.0496 14.0468 17.3328 9.99675 17.3328C5.94666 17.3328 2.66341 14.0496 2.66341 9.99951C2.66341 5.94942 5.94666 2.66618 9.99675 2.66618C14.0468 2.66618 17.3301 5.94942 17.3301 9.99951ZM7.4987 8.08882H8.49288C8.55684 7.25743 9.11498 6.73998 9.99288 6.73998C10.8592 6.73998 11.4173 7.26905 11.4173 7.98998C11.4173 8.61208 11.1557 8.97836 10.4813 9.39115C9.68474 9.86789 9.31265 10.3911 9.31847 11.1586V11.6935H10.3359V11.3156C10.3359 10.7051 10.5452 10.3795 11.2836 9.94347C12.0278 9.4958 12.4987 8.85045 12.4987 7.93766C12.4987 6.73998 11.4987 5.83301 10.0336 5.83301C8.39986 5.83301 7.56265 6.83301 7.4987 8.08882ZM10.4942 13.6817C10.4942 14.0538 10.2093 14.3445 9.83141 14.3445C9.45932 14.3445 9.16862 14.0538 9.16862 13.6817C9.16862 13.3038 9.45932 13.0189 9.83141 13.0189C10.2093 13.0189 10.4942 13.3038 10.4942 13.6817Z" fill="black" fill-opacity="0.3"/>
</svg>
