<svg width="64" height="64" viewBox="0 0 64 64" fill="none" xmlns="http://www.w3.org/2000/svg">
<path fill-rule="evenodd" clip-rule="evenodd" d="M31.9987 58.6663C17.2711 58.6663 5.33203 46.7273 5.33203 31.9997C5.33203 17.2721 17.2711 5.33301 31.9987 5.33301C46.7263 5.33301 58.6654 17.2721 58.6654 31.9997C58.6654 46.7273 46.7263 58.6663 31.9987 58.6663ZM31.9966 55.4669C44.9569 55.4669 55.4633 44.9605 55.4633 32.0002C55.4633 19.0399 44.9569 8.53353 31.9966 8.53353C19.0363 8.53353 8.52995 19.0399 8.52995 32.0002C8.52995 44.9605 19.0363 55.4669 31.9966 55.4669ZM44.364 23.3332L28.8752 38.822L20.9288 30.8756L18.666 33.1384L26.9895 41.4619C28.0309 42.5033 29.7194 42.5033 30.7608 41.4619L46.6268 25.5959L44.364 23.3332Z" fill="#07C160"/>
</svg>
