<svg width="64" height="64" viewBox="0 0 64 64" fill="none" xmlns="http://www.w3.org/2000/svg">
<path fill-rule="evenodd" clip-rule="evenodd" d="M31.9987 58.6663C17.2711 58.6663 5.33203 46.7273 5.33203 31.9997C5.33203 17.2721 17.2711 5.33301 31.9987 5.33301C46.7263 5.33301 58.6654 17.2721 58.6654 31.9997C58.6654 46.7273 46.7263 58.6663 31.9987 58.6663ZM29.9622 16.3617H34.0273L33.7357 36.6195H30.2539L29.9622 16.3617ZM29.5977 43.2549C29.5977 44.5856 30.6549 45.6064 31.9857 45.6064C33.3529 45.6064 34.3919 44.5856 34.3919 43.2549C34.3919 41.9242 33.3529 40.9033 31.9857 40.9033C30.6549 40.9033 29.5977 41.9242 29.5977 43.2549Z" fill="#FFC300"/>
</svg>
