<svg width="1em" height="1em" viewBox="0 0 24 24" fill="none" xmlns="http://www.w3.org/2000/svg" data-icon="ChatFilled"><path d="M4.446 19.224 3.39 20.732c-.525.752.029 1.768.963 1.768h7.412c.056-.002.328 0 .531 0h.203c.424 0 .841-.025 1.252-.074h.002C18.962 21.806 23 17.375 23 12c0-1.433-.478-3.415-.5-3.475a10.513 10.513 0 0 0-3.164-4.495 10.459 10.459 0 0 0-7.033-2.53C6.337 1.5 1.5 6.201 1.5 12c0 .197.006.393.017.587.138 2.566 1.226 4.887 2.929 6.637ZM17 10c0 .5-.387 1-1 1H9.02C8.398 11 8 10.5 8 10a1 1 0 0 1 1-1h7a1 1 0 0 1 1 1Zm-4.012 3A1.001 1.001 0 1 1 13 15H9a1 1 0 0 1-1-1 1 1 0 0 1 1-1h3.988Z" fill="currentColor"></path></svg>