<svg width="24" height="27" viewBox="0 0 24 27" fill="none" xmlns="http://www.w3.org/2000/svg">
<g id="16px_set_set_normal">
<path id="Subtract" fill-rule="evenodd" clip-rule="evenodd" d="M13.7261 23.9884L20.0065 20.3249C20.8033 19.8601 21.3293 19.0417 21.4211 18.1238L22.5355 6.97958C22.6741 5.5933 21.8006 4.30655 20.461 3.92382L13.0662 1.81101C12.549 1.66326 12.0009 1.66326 11.4838 1.81101L4.08893 3.92382C2.74934 4.30655 1.87579 5.5933 2.01442 6.97957L3.12884 18.1238C3.22063 19.0417 3.74657 19.8601 4.5434 20.3249L10.8238 23.9884C11.7205 24.5115 12.8294 24.5115 13.7261 23.9884ZM17.1332 10.4932C17.6956 9.93082 17.6956 9.01907 17.1332 8.45671C16.5709 7.89436 15.6591 7.89436 15.0968 8.45671L11.075 12.4785L9.21323 10.6167C8.65087 10.0544 7.73912 10.0544 7.17676 10.6167C6.61441 11.1791 6.61441 12.0908 7.17676 12.6532L10.0568 15.5332C10.6191 16.0955 11.5309 16.0955 12.0932 15.5332L17.1332 10.4932Z" fill="#1EC780"/>
</g>
</svg>
