<svg width="1em" height="1em" viewBox="0 0 24 24" fill="none" xmlns="http://www.w3.org/2000/svg" data-icon="MicOffFilled"><path d="M7 11v-.463l5.444 5.444A5 5 0 0 1 7 11Z" fill="currentColor"></path><path d="M12 18c.743 0 1.46-.116 2.132-.33l1.547 1.546a8.942 8.942 0 0 1-2.68.73V22.5a1 1 0 1 1-2 0v-2.555A9 9 0 0 1 3 11v-1a1 1 0 1 1 2 0v1a7 7 0 0 0 7 7Zm6.052-3.48 1.451 1.452A8.958 8.958 0 0 0 21 11v-1a1 1 0 1 0-2 0v1a6.968 6.968 0 0 1-.948 3.52ZM7.451 3.92l9.117 9.117A4.983 4.983 0 0 0 17 11V6a5 5 0 0 0-9.55-2.08ZM1.707 1.703a1 1 0 0 0 0 1.414l19.092 19.092a1 1 0 0 0 1.414-1.414L3.121 1.703a1 1 0 0 0-1.414 0Z" fill="currentColor"></path></svg>