<svg width="1em" height="1em" viewBox="0 0 24 24" fill="none" xmlns="http://www.w3.org/2000/svg" data-icon="MicFilled"><path id="original-mic-5" d="M7 6a5 5 0 0 1 10 0v5a5 5 0 0 1-10 0V6Z" fill="currentColor"></path><clipPath id="vc-speaker-icon-clip-path-5"><use href="#original-mic-5"></use></clipPath><path d="M20 9a1 1 0 0 0-1 1v1a7 7 0 1 1-14 0v-1a1 1 0 0 0-2 0v1a9 9 0 0 0 8 8.945V22.5a1 1 0 1 0 2 0v-2.555A9 9 0 0 0 21 11v-1a1 1 0 0 0-1-1Z" fill="currentColor"></path><rect class="mic-volume-rect level-1" clip-path="url(#vc-speaker-icon-clip-path-5)"></rect></svg>