<svg class="_2JYPmWRB" width="56" height="42" viewBox="0 0 56 42" fill="none" xmlns="http://www.w3.org/2000/svg"><path fill-rule="evenodd" clip-rule="evenodd" d="M4 0C1.79086 0 0 1.79086 0 4V38C0 40.2091 1.79086 42 4 42H40.0667C40.6189 42 41.0667 41.5523 41.0667 41V1C41.0667 0.447715 40.6189 0 40.0667 0H4ZM43.9336 14.6086C43.3813 14.6086 42.9336 15.0564 42.9336 15.6086V26.3913C42.9336 26.9435 43.3813 27.3913 43.9336 27.3913H55.0003C55.5525 27.3913 56.0003 26.9435 56.0003 26.3913V15.6086C56.0003 15.0564 55.5525 14.6086 55.0003 14.6086H43.9336ZM42.9336 30.2174C42.9336 29.6651 43.3813 29.2174 43.9336 29.2174H55.0003C55.5525 29.2174 56.0003 29.6651 56.0003 30.2174V38C56.0003 40.2091 54.2094 42 52.0003 42H43.9336C43.3813 42 42.9336 41.5523 42.9336 41V30.2174ZM43.9336 0C43.3813 0 42.9336 0.447714 42.9336 0.999999V11.7826C42.9336 12.3349 43.3813 12.7826 43.9336 12.7826H55.0003C55.5525 12.7826 56.0003 12.3349 56.0003 11.7826V4C56.0003 1.79086 54.2094 0 52.0003 0H43.9336Z" fill="currentColor"></path></svg>