<svg class="_2JYPmWRB" width="56" height="42" viewBox="0 0 56 42" fill="none" xmlns="http://www.w3.org/2000/svg"><path fill-rule="evenodd" clip-rule="evenodd" d="M4 0C1.79086 0 0 1.79086 0 4V19.087C0 19.6392 0.447715 20.087 1 20.087H26.0667C26.619 20.087 27.0667 19.6392 27.0667 19.087V1C27.0667 0.447715 26.619 0 26.0667 0H4ZM29.9333 0C29.381 0 28.9333 0.447715 28.9333 1V19.087C28.9333 19.6392 29.381 20.087 29.9333 20.087H55C55.5523 20.087 56 19.6392 56 19.087V4C56 1.79086 54.2091 0 52 0H29.9333ZM28.9333 22.913C28.9333 22.3608 29.381 21.913 29.9333 21.913H55C55.5523 21.913 56 22.3608 56 22.913V38C56 40.2091 54.2091 42 52 42H29.9333C29.381 42 28.9333 41.5523 28.9333 41V22.913ZM1 21.913C0.447715 21.913 0 22.3608 0 22.913V38C0 40.2091 1.79086 42 4 42H26.0667C26.619 42 27.0667 41.5523 27.0667 41V22.913C27.0667 22.3608 26.619 21.913 26.0667 21.913H1Z" fill="currentColor"></path></svg>