<svg class="_2JYPmWRB" width="56" height="42" viewBox="0 0 56 42" fill="none" xmlns="http://www.w3.org/2000/svg"><path fill-rule="evenodd" clip-rule="evenodd" d="M4 0C1.79086 0 0 1.79086 0 4V38C0 40.2091 1.79086 42 4 42H52C54.2091 42 56 40.2091 56 38V4C56 1.79086 54.2091 0 52 0H4ZM40.2667 2.73913C39.1621 2.73913 38.2667 3.63456 38.2667 4.73913V11.6957C38.2667 12.8002 39.1621 13.6957 40.2667 13.6957H51.2C52.3046 13.6957 53.2 12.8002 53.2 11.6957V4.73913C53.2 3.63456 52.3046 2.73913 51.2 2.73913H40.2667Z" fill="currentColor"></path></svg>