<svg width="1em" height="1em" viewBox="0 0 24 24" fill="none" xmlns="http://www.w3.org/2000/svg" data-icon="QualityMonitoringFilled"><path d="M3.5 2a2 2 0 0 0-2 2v13a2 2 0 0 0 2 2h17a2 2 0 0 0 2-2V4a2 2 0 0 0-2-2h-17Zm6.043 8.903a1.4 1.4 0 0 1-1.339.99H5.5a1 1 0 0 1 0-2h2.26l1.106-3.606c.34-1.106 1.894-1.139 2.279-.048l2.147 6.084 1.267-1.828a1.4 1.4 0 0 1 1.15-.603H18.5a1 1 0 0 1 0 2h-2.476l-1.98 2.856a1.2 1.2 0 0 1-2.117-.284l-1.86-5.27-.524 1.709ZM7.5 22a1 1 0 0 1 1-1h7a1 1 0 1 1 0 2h-7a1 1 0 0 1-1-1Z" fill="currentColor"></path></svg>