<svg width="1em" height="1em" viewBox="0 0 24 24" fill="none" xmlns="http://www.w3.org/2000/svg"><path d="M11.33 8A1.34 1.34 0 0 0 10 9.33v9.34A1.34 1.34 0 0 0 11.33 20h1.34A1.34 1.34 0 0 0 14 18.67V9.33A1.34 1.34 0 0 0 12.67 8h-1.34Zm-7.5 4a1.34 1.34 0 0 0-1.33 1.33v5.34A1.34 1.34 0 0 0 3.83 20h1.34a1.34 1.34 0 0 0 1.33-1.33v-5.34A1.34 1.34 0 0 0 5.17 12H3.83Zm15.13-1.56.54.56.54-.54a3.24 3.24 0 0 1 1.46-.85V5.33A1.34 1.34 0 0 0 20.17 4h-1.34a1.34 1.34 0 0 0-1.33 1.33v4.28a3.24 3.24 0 0 1 1.46.83Z" fill="#8F959E"></path><path d="M23.503 17.101a1.698 1.698 0 1 1-2.402 2.402l-5.604-5.604a1.698 1.698 0 1 1 2.402-2.402l5.604 5.604Z" fill="#F54A45"></path><path d="M21.101 11.497a1.698 1.698 0 1 1 2.402 2.402l-5.604 5.604a1.698 1.698 0 1 1-2.402-2.402l5.604-5.604Z" fill="#F54A45"></path></svg>