<svg width="1em" height="1em" viewBox="0 0 24 24" fill="none" xmlns="http://www.w3.org/2000/svg" data-icon="SignalOutlined"><path d="M18.833 4c-.736 0-1.333.597-1.333 1.333v13.334c0 .736.597 1.333 1.333 1.333h1.334c.736 0 1.333-.597 1.333-1.333V5.333C21.5 4.597 20.903 4 20.167 4h-1.334Zm-7.5 4C10.597 8 10 8.597 10 9.333v9.334c0 .736.597 1.333 1.333 1.333h1.334c.736 0 1.333-.597 1.333-1.333V9.333C14 8.597 13.403 8 12.667 8h-1.334Zm-7.5 4c-.736 0-1.333.597-1.333 1.333v5.334c0 .736.597 1.333 1.333 1.333h1.334c.736 0 1.333-.597 1.333-1.333v-5.334C6.5 12.597 5.903 12 5.167 12H3.833Z" fill="currentColor"></path></svg>