<svg class="arrow-down-icon" width="1em" height="1em" viewBox="0 0 10 10" fill="none" xmlns="http://www.w3.org/2000/svg"><g clip-path="url(#clip0_24_13629)"><path d="M4.5834 7.9187L2.1195 5.45457C1.95678 5.29184 1.69296 5.29183 1.53024 5.45455C1.36753 5.61727 1.36752 5.88108 1.53024 6.0438L4.83199 9.3456C4.87265 9.38626 4.92594 9.4066 4.9792 9.40661L5.0211 9.40662C5.07444 9.40664 5.1278 9.3863 5.1685 9.3456L8.46803 6.04752C8.63288 5.88274 8.63013 5.61443 8.46239 5.4526C8.29888 5.29484 8.03876 5.29682 7.8781 5.45749L5.41673 7.91891L5.4169 1.00798C5.41691 0.777862 5.23036 0.591309 5.00023 0.591309C4.77012 0.591309 4.58357 0.77785 4.58357 1.00796L4.5834 7.9187Z" fill="currentColor" stroke="currentColor"></path></g><defs><clipPath id="clip0_24_13629"><rect width="10" height="10" fill="white"></rect></clipPath></defs></svg>