<svg class="arrow-up-icon" width="1em" height="1em" viewBox="0 0 10 10" fill="none" xmlns="http://www.w3.org/2000/svg"><g clip-path="url(#clip0_24_13626)"><path d="M5.415 2.07923L7.8789 4.54336C8.04162 4.70609 8.30544 4.70609 8.46816 4.54337C8.63088 4.38066 8.63088 4.11684 8.46816 3.95413L5.16641 0.652328C5.12575 0.611665 5.07246 0.591326 5.0192 0.591318L4.9773 0.591309C4.92396 0.591287 4.87061 0.611627 4.8299 0.652328L1.53037 3.95041C1.36552 4.11518 1.36827 4.3835 1.53601 4.54533C1.69952 4.70308 1.95964 4.7011 2.1203 4.54044L4.58167 2.07902L4.5815 8.98994C4.58149 9.22006 4.76804 9.40662 4.99817 9.40662C5.22828 9.40662 5.41483 9.22007 5.41483 8.98996L5.415 2.07923Z" fill="currentColor" stroke="currentColor"></path></g><defs><clipPath id="clip0_24_13626"><rect width="10" height="10" fill="white"></rect></clipPath></defs></svg>