<svg width="1em" height="1em" viewBox="0 0 24 24" fill="none" xmlns="http://www.w3.org/2000/svg" data-icon="EmojiFilled"><path d="M1 12c0 6.075 4.925 11 11 11s11-4.925 11-11S18.075 1 12 1 1 5.925 1 12Zm13-2.5a1 1 0 1 1 2 0v1a1 1 0 1 1-2 0v-1Zm-5-1a1 1 0 0 1 1 1v1a1 1 0 1 1-2 0v-1a1 1 0 0 1 1-1Zm6.455 5.5h1.12c.26 0 .44.268.323.502A5.5 5.5 0 0 1 12 17.5a5.5 5.5 0 0 1-4.893-2.986c-.123-.238.064-.514.332-.514h1.197c.31 0 .598.147.803.38.047.053.093.103.133.14.63.607 1.485.98 2.428.98.95 0 1.81-.378 2.441-.992.036-.034.077-.08.12-.128a1.08 1.08 0 0 1 .803-.38h.09Z" fill="currentColor"></path></svg>